<mxfile host="app.diagrams.net" modified="2024-04-21T14:42:39.567Z" agent="Mozilla/5.0 (Windows NT 10.0; Win64; x64) AppleWebKit/537.36 (KHTML, like Gecko) Chrome/122.0.0.0 Safari/537.36" version="23.1.7" etag="ohSNMU1N-VluHavUMBNj" type="github">
  <diagram name="第 1 页" id="MDtcso_N7-031tvyLJa-">
    <mxGraphModel>
      <root>
        <mxCell id="0" />
        <mxCell id="1" parent="0" />
      </root>
    </mxGraphModel>
  </diagram>
</mxfile>
